%TF.GenerationSoftware,KiCad,Pcbnew,9.0.7*%
%TF.CreationDate,2026-04-21T18:17:13+03:00*%
%TF.ProjectId,Cat-Gate Controller v1.0,4361742d-4761-4746-9520-436f6e74726f,rev?*%
%TF.SameCoordinates,Original*%
%TF.FileFunction,Copper,L2,Bot*%
%TF.FilePolarity,Positive*%
%FSLAX46Y46*%
G04 Gerber Fmt 4.6, Leading zero omitted, Abs format (unit mm)*
G04 Created by KiCad (PCBNEW 9.0.7) date 2026-04-21 18:17:13*
%MOMM*%
%LPD*%
G01*
G04 APERTURE LIST*
G04 Aperture macros list*
%AMRoundRect*
0 Rectangle with rounded corners*
0 $1 Rounding radius*
0 $2 $3 $4 $5 $6 $7 $8 $9 X,Y pos of 4 corners*
0 Add a 4 corners polygon primitive as box body*
4,1,4,$2,$3,$4,$5,$6,$7,$8,$9,$2,$3,0*
0 Add four circle primitives for the rounded corners*
1,1,$1+$1,$2,$3*
1,1,$1+$1,$4,$5*
1,1,$1+$1,$6,$7*
1,1,$1+$1,$8,$9*
0 Add four rect primitives between the rounded corners*
20,1,$1+$1,$2,$3,$4,$5,0*
20,1,$1+$1,$4,$5,$6,$7,0*
20,1,$1+$1,$6,$7,$8,$9,0*
20,1,$1+$1,$8,$9,$2,$3,0*%
G04 Aperture macros list end*
%TA.AperFunction,NonConductor*%
%ADD10C,0.200000*%
%TD*%
%TA.AperFunction,ComponentPad*%
%ADD11R,1.700000X1.700000*%
%TD*%
%TA.AperFunction,ComponentPad*%
%ADD12C,1.700000*%
%TD*%
%TA.AperFunction,ComponentPad*%
%ADD13R,3.500000X3.500000*%
%TD*%
%TA.AperFunction,ComponentPad*%
%ADD14RoundRect,0.750000X-0.750000X-1.000000X0.750000X-1.000000X0.750000X1.000000X-0.750000X1.000000X0*%
%TD*%
%TA.AperFunction,ComponentPad*%
%ADD15RoundRect,0.875000X-0.875000X-0.875000X0.875000X-0.875000X0.875000X0.875000X-0.875000X0.875000X0*%
%TD*%
%TA.AperFunction,ViaPad*%
%ADD16C,0.600000*%
%TD*%
%TA.AperFunction,Conductor*%
%ADD17C,0.200000*%
%TD*%
G04 APERTURE END LIST*
D10*
X79000000Y-20700000D02*
X145100000Y-20700000D01*
X145100000Y-62700000D01*
X79000000Y-62700000D01*
X79000000Y-20700000D01*
D11*
%TO.P,J5,1,Pin_1*%
%TO.N,Net-(J5-Pin_1)*%
X142700000Y-48860000D03*
D12*
%TO.P,J5,2,Pin_2*%
%TO.N,GND*%
X142700000Y-51400000D03*
%TD*%
D11*
%TO.P,J4,1,Pin_1*%
%TO.N,Net-(J4-Pin_1)*%
X136800000Y-48760000D03*
D12*
%TO.P,J4,2,Pin_2*%
%TO.N,GND*%
X136800000Y-51300000D03*
%TD*%
D13*
%TO.P,J2,1*%
%TO.N,Net-(U2-VINT)*%
X94300000Y-28200000D03*
D14*
%TO.P,J2,2*%
%TO.N,GND*%
X88300000Y-28200000D03*
D15*
%TO.P,J2,3*%
%TO.N,N/C*%
X91300000Y-32900000D03*
%TD*%
D11*
%TO.P,J3,1,Pin_1*%
%TO.N,Net-(J3-Pin_1)*%
X95300000Y-48925000D03*
D12*
%TO.P,J3,2,Pin_2*%
%TO.N,Net-(J3-Pin_2)*%
X95300000Y-51465000D03*
%TD*%
D11*
%TO.P,J1,1,Pin_1*%
%TO.N,Net-(J1-Pin_1)*%
X125100000Y-48800000D03*
D12*
%TO.P,J1,2,Pin_2*%
%TO.N,GND*%
X125100000Y-51340000D03*
%TD*%
D16*
%TO.N,Net-(U1-XTAL1{slash}PB6)*%
X132600000Y-38000000D03*
X128300000Y-37000000D03*
%TO.N,Net-(U1-XTAL2{slash}PB7)*%
X129600000Y-41000000D03*
X127800000Y-41000000D03*
%TO.N,Net-(J1-Pin_1)*%
X118400000Y-43000000D03*
X119100000Y-46100000D03*
%TD*%
D17*
%TO.N,Net-(U1-XTAL1{slash}PB6)*%
X131600000Y-37000000D02*
X128300000Y-37000000D01*
X132600000Y-38000000D02*
X131600000Y-37000000D01*
%TO.N,Net-(U1-XTAL2{slash}PB7)*%
X127800000Y-41000000D02*
X129600000Y-41000000D01*
%TO.N,Net-(J1-Pin_1)*%
X119100000Y-46100000D02*
X118400000Y-45400000D01*
X118400000Y-45400000D02*
X118400000Y-43000000D01*
%TD*%
%TA.AperFunction,Conductor*%
%TO.N,GND*%
G36*
X144442539Y-21320185D02*
G01*
X144488294Y-21372989D01*
X144499500Y-21424500D01*
X144499500Y-61975500D01*
X144479815Y-62042539D01*
X144427011Y-62088294D01*
X144375500Y-62099500D01*
X79724500Y-62099500D01*
X79657461Y-62079815D01*
X79611706Y-62027011D01*
X79600500Y-61975500D01*
X79600500Y-48027135D01*
X93949500Y-48027135D01*
X93949500Y-49822870D01*
X93949501Y-49822876D01*
X93955908Y-49882483D01*
X94006202Y-50017328D01*
X94006206Y-50017335D01*
X94092452Y-50132544D01*
X94092455Y-50132547D01*
X94207664Y-50218793D01*
X94207671Y-50218797D01*
X94339082Y-50267810D01*
X94395016Y-50309681D01*
X94419433Y-50375145D01*
X94404582Y-50443418D01*
X94383431Y-50471673D01*
X94269889Y-50585215D01*
X94144951Y-50757179D01*
X94048444Y-50946585D01*
X93982753Y-51148760D01*
X93969225Y-51234174D01*
X93949500Y-51358713D01*
X93949500Y-51571287D01*
X93959534Y-51634644D01*
X93972440Y-51716127D01*
X93982754Y-51781243D01*
X94007764Y-51858217D01*
X94048444Y-51983414D01*
X94144951Y-52172820D01*
X94269890Y-52344786D01*
X94420213Y-52495109D01*
X94592179Y-52620048D01*
X94592181Y-52620049D01*
X94592184Y-52620051D01*
X94781588Y-52716557D01*
X94983757Y-52782246D01*
X95193713Y-52815500D01*
X95193714Y-52815500D01*
X95406286Y-52815500D01*
X95406287Y-52815500D01*
X95616243Y-52782246D01*
X95818412Y-52716557D01*
X96007816Y-52620051D01*
X96047671Y-52591095D01*
X96179786Y-52495109D01*
X96179788Y-52495106D01*
X96179792Y-52495104D01*
X96330104Y-52344792D01*
X96455051Y-52172816D01*
X96551557Y-51983412D01*
X96617246Y-51781243D01*
X96650500Y-51571287D01*
X96650500Y-51358713D01*
X96630708Y-51233755D01*
X96629195Y-51224201D01*
X96617246Y-51148757D01*
X96551557Y-50946588D01*
X96455051Y-50757184D01*
X96455049Y-50757181D01*
X96455048Y-50757179D01*
X96330109Y-50585213D01*
X96216569Y-50471673D01*
X96183084Y-50410350D01*
X96188068Y-50340658D01*
X96229940Y-50284725D01*
X96260915Y-50267810D01*
X96392331Y-50218796D01*
X96507546Y-50132546D01*
X96593796Y-50017331D01*
X96644091Y-49882483D01*
X96650500Y-49822873D01*
X96650499Y-48027128D01*
X96644091Y-47967517D01*
X96642081Y-47962129D01*
X96634626Y-47942139D01*
X96619705Y-47902135D01*
X123749500Y-47902135D01*
X123749500Y-49697870D01*
X123749501Y-49697876D01*
X123755908Y-49757483D01*
X123806202Y-49892328D01*
X123806206Y-49892335D01*
X123892452Y-50007544D01*
X123892455Y-50007547D01*
X124007664Y-50093793D01*
X124007671Y-50093797D01*
X124035266Y-50104089D01*
X124142517Y-50144091D01*
X124202127Y-50150500D01*
X124212685Y-50150499D01*
X124279723Y-50170179D01*
X124300372Y-50186818D01*
X124970591Y-50857037D01*
X124907007Y-50874075D01*
X124792993Y-50939901D01*
X124699901Y-51032993D01*
X124634075Y-51147007D01*
X124617037Y-51210591D01*
X123984728Y-50578282D01*
X123984727Y-50578282D01*
X123945380Y-50632439D01*
X123848904Y-50821782D01*
X123783242Y-51023869D01*
X123783242Y-51023872D01*
X123750000Y-51233753D01*
X123750000Y-51446246D01*
X123783242Y-51656127D01*
X123783242Y-51656130D01*
X123848904Y-51858217D01*
X123945375Y-52047550D01*
X123984728Y-52101716D01*
X124617037Y-51469408D01*
X124634075Y-51532993D01*
X124699901Y-51647007D01*
X124792993Y-51740099D01*
X124907007Y-51805925D01*
X124970590Y-51822962D01*
X124338282Y-52455269D01*
X124338282Y-52455270D01*
X124392449Y-52494624D01*
X124581782Y-52591095D01*
X124783870Y-52656757D01*
X124993754Y-52690000D01*
X125206246Y-52690000D01*
X125416127Y-52656757D01*
X125416130Y-52656757D01*
X125618217Y-52591095D01*
X125807554Y-52494622D01*
X125861716Y-52455270D01*
X125861717Y-52455270D01*
X125229408Y-51822962D01*
X125292993Y-51805925D01*
X125407007Y-51740099D01*
X125500099Y-51647007D01*
X125565925Y-51532993D01*
X125582962Y-51469408D01*
X126215270Y-52101717D01*
X126215270Y-52101716D01*
X126254622Y-52047554D01*
X126351095Y-51858217D01*
X126416757Y-51656130D01*
X126416757Y-51656127D01*
X126450000Y-51446246D01*
X126450000Y-51233755D01*
X126445965Y-51208280D01*
X126445965Y-51208279D01*
X126416757Y-51023872D01*
X126416757Y-51023869D01*
X126351095Y-50821782D01*
X126254624Y-50632449D01*
X126215270Y-50578282D01*
X126215269Y-50578282D01*
X125582962Y-51210590D01*
X125565925Y-51147007D01*
X125500099Y-51032993D01*
X125407007Y-50939901D01*
X125292993Y-50874075D01*
X125229409Y-50857037D01*
X125899627Y-50186818D01*
X125960950Y-50153333D01*
X125987307Y-50150499D01*
X125997872Y-50150499D01*
X126057483Y-50144091D01*
X126192331Y-50093796D01*
X126307546Y-50007546D01*
X126393796Y-49892331D01*
X126444091Y-49757483D01*
X126450500Y-49697873D01*
X126450499Y-47902128D01*
X126446200Y-47862135D01*
X135449500Y-47862135D01*
X135449500Y-49657870D01*
X135449501Y-49657876D01*
X135455908Y-49717483D01*
X135506202Y-49852328D01*
X135506206Y-49852335D01*
X135592452Y-49967544D01*
X135592455Y-49967547D01*
X135707664Y-50053793D01*
X135707671Y-50053797D01*
X135744529Y-50067544D01*
X135842517Y-50104091D01*
X135902127Y-50110500D01*
X135912685Y-50110499D01*
X135979723Y-50130179D01*
X136000372Y-50146818D01*
X136670591Y-50817037D01*
X136607007Y-50834075D01*
X136492993Y-50899901D01*
X136399901Y-50992993D01*
X136334075Y-51107007D01*
X136317037Y-51170591D01*
X135684728Y-50538282D01*
X135684727Y-50538282D01*
X135645380Y-50592439D01*
X135548904Y-50781782D01*
X135483242Y-50983869D01*
X135483242Y-50983872D01*
X135450000Y-51193753D01*
X135450000Y-51406246D01*
X135483242Y-51616127D01*
X135483242Y-51616130D01*
X135548904Y-51818217D01*
X135645375Y-52007550D01*
X135684728Y-52061716D01*
X136317036Y-51429407D01*
X136334075Y-51492993D01*
X136399901Y-51607007D01*
X136492993Y-51700099D01*
X136607007Y-51765925D01*
X136670590Y-51782962D01*
X136038282Y-52415269D01*
X136038282Y-52415270D01*
X136092449Y-52454624D01*
X136281782Y-52551095D01*
X136483870Y-52616757D01*
X136693754Y-52650000D01*
X136906246Y-52650000D01*
X137116127Y-52616757D01*
X137116130Y-52616757D01*
X137318217Y-52551095D01*
X137507554Y-52454622D01*
X137561716Y-52415270D01*
X137561717Y-52415270D01*
X136929408Y-51782962D01*
X136992993Y-51765925D01*
X137107007Y-51700099D01*
X137200099Y-51607007D01*
X137265925Y-51492993D01*
X137282962Y-51429408D01*
X137915270Y-52061717D01*
X137915270Y-52061716D01*
X137954622Y-52007554D01*
X138051095Y-51818217D01*
X138116757Y-51616130D01*
X138116757Y-51616127D01*
X138150000Y-51406246D01*
X138150000Y-51193753D01*
X138116757Y-50983872D01*
X138116757Y-50983869D01*
X138051095Y-50781782D01*
X137954624Y-50592449D01*
X137915270Y-50538282D01*
X137915269Y-50538282D01*
X137282962Y-51170590D01*
X137265925Y-51107007D01*
X137200099Y-50992993D01*
X137107007Y-50899901D01*
X136992993Y-50834075D01*
X136929409Y-50817037D01*
X137599627Y-50146818D01*
X137660950Y-50113333D01*
X137687307Y-50110499D01*
X137697872Y-50110499D01*
X137757483Y-50104091D01*
X137892331Y-50053796D01*
X138007546Y-49967546D01*
X138093796Y-49852331D01*
X138144091Y-49717483D01*
X138150500Y-49657873D01*
X138150499Y-47962135D01*
X141349500Y-47962135D01*
X141349500Y-49757870D01*
X141349501Y-49757876D01*
X141355908Y-49817483D01*
X141406202Y-49952328D01*
X141406206Y-49952335D01*
X141492452Y-50067544D01*
X141492455Y-50067547D01*
X141607664Y-50153793D01*
X141607671Y-50153797D01*
X141651594Y-50170179D01*
X141742517Y-50204091D01*
X141802127Y-50210500D01*
X141812685Y-50210499D01*
X141879723Y-50230179D01*
X141900372Y-50246818D01*
X142570591Y-50917037D01*
X142507007Y-50934075D01*
X142392993Y-50999901D01*
X142299901Y-51092993D01*
X142234075Y-51207007D01*
X142217037Y-51270591D01*
X141584728Y-50638282D01*
X141584727Y-50638282D01*
X141545380Y-50692439D01*
X141448904Y-50881782D01*
X141383242Y-51083869D01*
X141383242Y-51083872D01*
X141350000Y-51293753D01*
X141350000Y-51506246D01*
X141383242Y-51716127D01*
X141383242Y-51716130D01*
X141448904Y-51918217D01*
X141545375Y-52107550D01*
X141584728Y-52161716D01*
X142217037Y-51529408D01*
X142234075Y-51592993D01*
X142299901Y-51707007D01*
X142392993Y-51800099D01*
X142507007Y-51865925D01*
X142570590Y-51882962D01*
X141938282Y-52515269D01*
X141938282Y-52515270D01*
X141992449Y-52554624D01*
X142181782Y-52651095D01*
X142383870Y-52716757D01*
X142593754Y-52750000D01*
X142806246Y-52750000D01*
X143016127Y-52716757D01*
X143016130Y-52716757D01*
X143218217Y-52651095D01*
X143407554Y-52554622D01*
X143461716Y-52515270D01*
X143461717Y-52515270D01*
X142829408Y-51882962D01*
X142892993Y-51865925D01*
X143007007Y-51800099D01*
X143100099Y-51707007D01*
X143165925Y-51592993D01*
X143182962Y-51529408D01*
X143815270Y-52161717D01*
X143815270Y-52161716D01*
X143854622Y-52107554D01*
X143951095Y-51918217D01*
X144016757Y-51716130D01*
X144016757Y-51716127D01*
X144050000Y-51506246D01*
X144050000Y-51293753D01*
X144016757Y-51083872D01*
X144016757Y-51083869D01*
X143951095Y-50881782D01*
X143854624Y-50692449D01*
X143815270Y-50638282D01*
X143815269Y-50638282D01*
X143182962Y-51270590D01*
X143165925Y-51207007D01*
X143100099Y-51092993D01*
X143007007Y-50999901D01*
X142892993Y-50934075D01*
X142829409Y-50917037D01*
X143499627Y-50246818D01*
X143560950Y-50213333D01*
X143587307Y-50210499D01*
X143597872Y-50210499D01*
X143657483Y-50204091D01*
X143792331Y-50153796D01*
X143907546Y-50067546D01*
X143993796Y-49952331D01*
X144044091Y-49817483D01*
X144050500Y-49757873D01*
X144050499Y-47962128D01*
X144044091Y-47902517D01*
X144043946Y-47902129D01*
X143993797Y-47767671D01*
X143993793Y-47767664D01*
X143907547Y-47652455D01*
X143907544Y-47652452D01*
X143792335Y-47566206D01*
X143792328Y-47566202D01*
X143657482Y-47515908D01*
X143657483Y-47515908D01*
X143597883Y-47509501D01*
X143597881Y-47509500D01*
X143597873Y-47509500D01*
X143597864Y-47509500D01*
X141802129Y-47509500D01*
X141802123Y-47509501D01*
X141742516Y-47515908D01*
X141607671Y-47566202D01*
X141607664Y-47566206D01*
X141492455Y-47652452D01*
X141492452Y-47652455D01*
X141406206Y-47767664D01*
X141406202Y-47767671D01*
X141355908Y-47902517D01*
X141351649Y-47942139D01*
X141349501Y-47962123D01*
X141349500Y-47962135D01*
X138150499Y-47962135D01*
X138150499Y-47862128D01*
X138144091Y-47802517D01*
X138131094Y-47767671D01*
X138093797Y-47667671D01*
X138093793Y-47667664D01*
X138007547Y-47552455D01*
X138007544Y-47552452D01*
X137892335Y-47466206D01*
X137892328Y-47466202D01*
X137757482Y-47415908D01*
X137757483Y-47415908D01*
X137697883Y-47409501D01*
X137697881Y-47409500D01*
X137697873Y-47409500D01*
X137697864Y-47409500D01*
X135902129Y-47409500D01*
X135902123Y-47409501D01*
X135842516Y-47415908D01*
X135707671Y-47466202D01*
X135707664Y-47466206D01*
X135592455Y-47552452D01*
X135592452Y-47552455D01*
X135506206Y-47667664D01*
X135506202Y-47667671D01*
X135455908Y-47802517D01*
X135451608Y-47842516D01*
X135449501Y-47862123D01*
X135449500Y-47862135D01*
X126446200Y-47862135D01*
X126444091Y-47842517D01*
X126393796Y-47707669D01*
X126393795Y-47707668D01*
X126393793Y-47707664D01*
X126307547Y-47592455D01*
X126307544Y-47592452D01*
X126192335Y-47506206D01*
X126192328Y-47506202D01*
X126057482Y-47455908D01*
X126057483Y-47455908D01*
X125997883Y-47449501D01*
X125997881Y-47449500D01*
X125997873Y-47449500D01*
X125997864Y-47449500D01*
X124202129Y-47449500D01*
X124202123Y-47449501D01*
X124142516Y-47455908D01*
X124007671Y-47506202D01*
X124007664Y-47506206D01*
X123892455Y-47592452D01*
X123892452Y-47592455D01*
X123806206Y-47707664D01*
X123806202Y-47707671D01*
X123755908Y-47842517D01*
X123749501Y-47902116D01*
X123749501Y-47902123D01*
X123749500Y-47902135D01*
X96619705Y-47902135D01*
X96593797Y-47832671D01*
X96593793Y-47832664D01*
X96507547Y-47717455D01*
X96507544Y-47717452D01*
X96392335Y-47631206D01*
X96392328Y-47631202D01*
X96257482Y-47580908D01*
X96257483Y-47580908D01*
X96197883Y-47574501D01*
X96197881Y-47574500D01*
X96197873Y-47574500D01*
X96197864Y-47574500D01*
X94402129Y-47574500D01*
X94402123Y-47574501D01*
X94342516Y-47580908D01*
X94207671Y-47631202D01*
X94207664Y-47631206D01*
X94092455Y-47717452D01*
X94092452Y-47717455D01*
X94006206Y-47832664D01*
X94006202Y-47832671D01*
X93955908Y-47967517D01*
X93949501Y-48027116D01*
X93949501Y-48027123D01*
X93949500Y-48027135D01*
X79600500Y-48027135D01*
X79600500Y-42921153D01*
X117599500Y-42921153D01*
X117599500Y-43078846D01*
X117630261Y-43233489D01*
X117630264Y-43233501D01*
X117690602Y-43379172D01*
X117690609Y-43379185D01*
X117778602Y-43510874D01*
X117799480Y-43577551D01*
X117799500Y-43579765D01*
X117799500Y-45313330D01*
X117799499Y-45313348D01*
X117799499Y-45479054D01*
X117799498Y-45479054D01*
X117840423Y-45631785D01*
X117869358Y-45681900D01*
X117869359Y-45681904D01*
X117869360Y-45681904D01*
X117919479Y-45768714D01*
X117919481Y-45768717D01*
X118038349Y-45887585D01*
X118038355Y-45887590D01*
X118265425Y-46114660D01*
X118298910Y-46175983D01*
X118299361Y-46178149D01*
X118330261Y-46333491D01*
X118330264Y-46333501D01*
X118390602Y-46479172D01*
X118390609Y-46479185D01*
X118478210Y-46610288D01*
X118478213Y-46610292D01*
X118589707Y-46721786D01*
X118589711Y-46721789D01*
X118720814Y-46809390D01*
X118720827Y-46809397D01*
X118866498Y-46869735D01*
X118866503Y-46869737D01*
X119021153Y-46900499D01*
X119021156Y-46900500D01*
X119021158Y-46900500D01*
X119178844Y-46900500D01*
X119178845Y-46900499D01*
X119333497Y-46869737D01*
X119479179Y-46809394D01*
X119610289Y-46721789D01*
X119721789Y-46610289D01*
X119809394Y-46479179D01*
X119869737Y-46333497D01*
X119900500Y-46178842D01*
X119900500Y-46021158D01*
X119900500Y-46021155D01*
X119900499Y-46021153D01*
X119869738Y-45866510D01*
X119869737Y-45866503D01*
X119829232Y-45768714D01*
X119809397Y-45720827D01*
X119809390Y-45720814D01*
X119721789Y-45589711D01*
X119721786Y-45589707D01*
X119610292Y-45478213D01*
X119610288Y-45478210D01*
X119479185Y-45390609D01*
X119479172Y-45390602D01*
X119333501Y-45330264D01*
X119333491Y-45330261D01*
X119178149Y-45299361D01*
X119161392Y-45290595D01*
X119142914Y-45286576D01*
X119117877Y-45267833D01*
X119116238Y-45266976D01*
X119114660Y-45265425D01*
X119036819Y-45187584D01*
X119003334Y-45126261D01*
X119000500Y-45099903D01*
X119000500Y-43579765D01*
X119020185Y-43512726D01*
X119021398Y-43510874D01*
X119109390Y-43379185D01*
X119109390Y-43379184D01*
X119109394Y-43379179D01*
X119169737Y-43233497D01*
X119200500Y-43078842D01*
X119200500Y-42921158D01*
X119200500Y-42921155D01*
X119200499Y-42921153D01*
X119169738Y-42766510D01*
X119169737Y-42766503D01*
X119169735Y-42766498D01*
X119109397Y-42620827D01*
X119109390Y-42620814D01*
X119021789Y-42489711D01*
X119021786Y-42489707D01*
X118910292Y-42378213D01*
X118910288Y-42378210D01*
X118779185Y-42290609D01*
X118779172Y-42290602D01*
X118633501Y-42230264D01*
X118633489Y-42230261D01*
X118478845Y-42199500D01*
X118478842Y-42199500D01*
X118321158Y-42199500D01*
X118321155Y-42199500D01*
X118166510Y-42230261D01*
X118166498Y-42230264D01*
X118020827Y-42290602D01*
X118020814Y-42290609D01*
X117889711Y-42378210D01*
X117889707Y-42378213D01*
X117778213Y-42489707D01*
X117778210Y-42489711D01*
X117690609Y-42620814D01*
X117690602Y-42620827D01*
X117630264Y-42766498D01*
X117630261Y-42766510D01*
X117599500Y-42921153D01*
X79600500Y-42921153D01*
X79600500Y-40921153D01*
X126999500Y-40921153D01*
X126999500Y-41078846D01*
X127030261Y-41233489D01*
X127030264Y-41233501D01*
X127090602Y-41379172D01*
X127090609Y-41379185D01*
X127178210Y-41510288D01*
X127178213Y-41510292D01*
X127289707Y-41621786D01*
X127289711Y-41621789D01*
X127420814Y-41709390D01*
X127420827Y-41709397D01*
X127566498Y-41769735D01*
X127566503Y-41769737D01*
X127721153Y-41800499D01*
X127721156Y-41800500D01*
X127721158Y-41800500D01*
X127878844Y-41800500D01*
X127878845Y-41800499D01*
X128033497Y-41769737D01*
X128179179Y-41709394D01*
X128179185Y-41709390D01*
X128310875Y-41621398D01*
X128377553Y-41600520D01*
X128379766Y-41600500D01*
X129020234Y-41600500D01*
X129087273Y-41620185D01*
X129089125Y-41621398D01*
X129220814Y-41709390D01*
X129220827Y-41709397D01*
X129366498Y-41769735D01*
X129366503Y-41769737D01*
X129521153Y-41800499D01*
X129521156Y-41800500D01*
X129521158Y-41800500D01*
X129678844Y-41800500D01*
X129678845Y-41800499D01*
X129833497Y-41769737D01*
X129979179Y-41709394D01*
X130110289Y-41621789D01*
X130221789Y-41510289D01*
X130309394Y-41379179D01*
X130369737Y-41233497D01*
X130400500Y-41078842D01*
X130400500Y-40921158D01*
X130400500Y-40921155D01*
X130400499Y-40921153D01*
X130369738Y-40766510D01*
X130369737Y-40766503D01*
X130369735Y-40766498D01*
X130309397Y-40620827D01*
X130309390Y-40620814D01*
X130221789Y-40489711D01*
X130221786Y-40489707D01*
X130110292Y-40378213D01*
X130110288Y-40378210D01*
X129979185Y-40290609D01*
X129979172Y-40290602D01*
X129833501Y-40230264D01*
X129833489Y-40230261D01*
X129678845Y-40199500D01*
X129678842Y-40199500D01*
X129521158Y-40199500D01*
X129521155Y-40199500D01*
X129366510Y-40230261D01*
X129366498Y-40230264D01*
X129220827Y-40290602D01*
X129220814Y-40290609D01*
X129089125Y-40378602D01*
X129022447Y-40399480D01*
X129020234Y-40399500D01*
X128379766Y-40399500D01*
X128312727Y-40379815D01*
X128310875Y-40378602D01*
X128179185Y-40290609D01*
X128179172Y-40290602D01*
X128033501Y-40230264D01*
X128033489Y-40230261D01*
X127878845Y-40199500D01*
X127878842Y-40199500D01*
X127721158Y-40199500D01*
X127721155Y-40199500D01*
X127566510Y-40230261D01*
X127566498Y-40230264D01*
X127420827Y-40290602D01*
X127420814Y-40290609D01*
X127289711Y-40378210D01*
X127289707Y-40378213D01*
X127178213Y-40489707D01*
X127178210Y-40489711D01*
X127090609Y-40620814D01*
X127090602Y-40620827D01*
X127030264Y-40766498D01*
X127030261Y-40766510D01*
X126999500Y-40921153D01*
X79600500Y-40921153D01*
X79600500Y-36921153D01*
X127499500Y-36921153D01*
X127499500Y-37078846D01*
X127530261Y-37233489D01*
X127530264Y-37233501D01*
X127590602Y-37379172D01*
X127590609Y-37379185D01*
X127678210Y-37510288D01*
X127678213Y-37510292D01*
X127789707Y-37621786D01*
X127789711Y-37621789D01*
X127920814Y-37709390D01*
X127920827Y-37709397D01*
X128058683Y-37766498D01*
X128066503Y-37769737D01*
X128221153Y-37800499D01*
X128221156Y-37800500D01*
X128221158Y-37800500D01*
X128378844Y-37800500D01*
X128378845Y-37800499D01*
X128533497Y-37769737D01*
X128679179Y-37709394D01*
X128679185Y-37709390D01*
X128810875Y-37621398D01*
X128877553Y-37600520D01*
X128879766Y-37600500D01*
X131299903Y-37600500D01*
X131366942Y-37620185D01*
X131387584Y-37636819D01*
X131765425Y-38014660D01*
X131798910Y-38075983D01*
X131799361Y-38078149D01*
X131830261Y-38233491D01*
X131830264Y-38233501D01*
X131890602Y-38379172D01*
X131890609Y-38379185D01*
X131978210Y-38510288D01*
X131978213Y-38510292D01*
X132089707Y-38621786D01*
X132089711Y-38621789D01*
X132220814Y-38709390D01*
X132220827Y-38709397D01*
X132366498Y-38769735D01*
X132366503Y-38769737D01*
X132521153Y-38800499D01*
X132521156Y-38800500D01*
X132521158Y-38800500D01*
X132678844Y-38800500D01*
X132678845Y-38800499D01*
X132833497Y-38769737D01*
X132979179Y-38709394D01*
X133110289Y-38621789D01*
X133221789Y-38510289D01*
X133309394Y-38379179D01*
X133369737Y-38233497D01*
X133400500Y-38078842D01*
X133400500Y-37921158D01*
X133400500Y-37921155D01*
X133400499Y-37921153D01*
X133369738Y-37766510D01*
X133369737Y-37766503D01*
X133309794Y-37621786D01*
X133309397Y-37620827D01*
X133309390Y-37620814D01*
X133221789Y-37489711D01*
X133221786Y-37489707D01*
X133110292Y-37378213D01*
X133110288Y-37378210D01*
X132979185Y-37290609D01*
X132979172Y-37290602D01*
X132833501Y-37230264D01*
X132833491Y-37230261D01*
X132678151Y-37199362D01*
X132616241Y-37166977D01*
X132614662Y-37165426D01*
X132087590Y-36638355D01*
X132087588Y-36638352D01*
X131968717Y-36519481D01*
X131968716Y-36519480D01*
X131881904Y-36469360D01*
X131881904Y-36469359D01*
X131881900Y-36469358D01*
X131831785Y-36440423D01*
X131679057Y-36399499D01*
X131520943Y-36399499D01*
X131513347Y-36399499D01*
X131513331Y-36399500D01*
X128879766Y-36399500D01*
X128812727Y-36379815D01*
X128810875Y-36378602D01*
X128679185Y-36290609D01*
X128679172Y-36290602D01*
X128533501Y-36230264D01*
X128533489Y-36230261D01*
X128378845Y-36199500D01*
X128378842Y-36199500D01*
X128221158Y-36199500D01*
X128221155Y-36199500D01*
X128066510Y-36230261D01*
X128066498Y-36230264D01*
X127920827Y-36290602D01*
X127920814Y-36290609D01*
X127789711Y-36378210D01*
X127789707Y-36378213D01*
X127678213Y-36489707D01*
X127678210Y-36489711D01*
X127590609Y-36620814D01*
X127590602Y-36620827D01*
X127530264Y-36766498D01*
X127530261Y-36766510D01*
X127499500Y-36921153D01*
X79600500Y-36921153D01*
X79600500Y-31931386D01*
X89049500Y-31931386D01*
X89049500Y-33868613D01*
X89049501Y-33868652D01*
X89052295Y-33921243D01*
X89052295Y-33921244D01*
X89096754Y-34151121D01*
X89096755Y-34151126D01*
X89145326Y-34279832D01*
X89179425Y-34370189D01*
X89297929Y-34572131D01*
X89297934Y-34572138D01*
X89448856Y-34751141D01*
X89448858Y-34751143D01*
X89627861Y-34902065D01*
X89627868Y-34902070D01*
X89829810Y-35020574D01*
X90048874Y-35103245D01*
X90278759Y-35147705D01*
X90331378Y-35150500D01*
X90331386Y-35150500D01*
X92268614Y-35150500D01*
X92268622Y-35150500D01*
X92321241Y-35147705D01*
X92551126Y-35103245D01*
X92770190Y-35020574D01*
X92972132Y-34902070D01*
X93151142Y-34751142D01*
X93302070Y-34572132D01*
X93420574Y-34370190D01*
X93503245Y-34151126D01*
X93547705Y-33921241D01*
X93550500Y-33868622D01*
X93550500Y-31931378D01*
X93547705Y-31878759D01*
X93503245Y-31648874D01*
X93420574Y-31429810D01*
X93302070Y-31227868D01*
X93302065Y-31227861D01*
X93151143Y-31048858D01*
X93151141Y-31048856D01*
X92972138Y-30897934D01*
X92972131Y-30897929D01*
X92770189Y-30779425D01*
X92672513Y-30742564D01*
X92551126Y-30696755D01*
X92551121Y-30696754D01*
X92551116Y-30696752D01*
X92548470Y-30696240D01*
X92547451Y-30695713D01*
X92546050Y-30695317D01*
X92546130Y-30695031D01*
X92486392Y-30664177D01*
X92451503Y-30603641D01*
X92454881Y-30533853D01*
X92495452Y-30476970D01*
X92560337Y-30451052D01*
X92572009Y-30450499D01*
X96097872Y-30450499D01*
X96157483Y-30444091D01*
X96292331Y-30393796D01*
X96407546Y-30307546D01*
X96493796Y-30192331D01*
X96544091Y-30057483D01*
X96550500Y-29997873D01*
X96550499Y-26402128D01*
X96544091Y-26342517D01*
X96504571Y-26236559D01*
X96493797Y-26207671D01*
X96493793Y-26207664D01*
X96407547Y-26092455D01*
X96407544Y-26092452D01*
X96292335Y-26006206D01*
X96292328Y-26006202D01*
X96157482Y-25955908D01*
X96157483Y-25955908D01*
X96097883Y-25949501D01*
X96097881Y-25949500D01*
X96097873Y-25949500D01*
X96097864Y-25949500D01*
X92502129Y-25949500D01*
X92502123Y-25949501D01*
X92442516Y-25955908D01*
X92307671Y-26006202D01*
X92307664Y-26006206D01*
X92192455Y-26092452D01*
X92192452Y-26092455D01*
X92106206Y-26207664D01*
X92106202Y-26207671D01*
X92055908Y-26342517D01*
X92049501Y-26402116D01*
X92049501Y-26402123D01*
X92049500Y-26402135D01*
X92049500Y-29997870D01*
X92049501Y-29997876D01*
X92055908Y-30057483D01*
X92106202Y-30192328D01*
X92106206Y-30192335D01*
X92192452Y-30307544D01*
X92192455Y-30307547D01*
X92307664Y-30393793D01*
X92307673Y-30393798D01*
X92354937Y-30411426D01*
X92410871Y-30453296D01*
X92435289Y-30518760D01*
X92420438Y-30587033D01*
X92371033Y-30636439D01*
X92305028Y-30651433D01*
X92268657Y-30649501D01*
X92268628Y-30649500D01*
X92268622Y-30649500D01*
X90331378Y-30649500D01*
X90331370Y-30649500D01*
X90331347Y-30649501D01*
X90278756Y-30652295D01*
X90278755Y-30652295D01*
X90048878Y-30696754D01*
X90048876Y-30696754D01*
X90048874Y-30696755D01*
X89974933Y-30724659D01*
X89829810Y-30779425D01*
X89627868Y-30897929D01*
X89627861Y-30897934D01*
X89448858Y-31048856D01*
X89448856Y-31048858D01*
X89297934Y-31227861D01*
X89297929Y-31227868D01*
X89179425Y-31429810D01*
X89124659Y-31574933D01*
X89096755Y-31648874D01*
X89096754Y-31648876D01*
X89096754Y-31648878D01*
X89052295Y-31878755D01*
X89052295Y-31878756D01*
X89049501Y-31931347D01*
X89049500Y-31931386D01*
X79600500Y-31931386D01*
X79600500Y-27135803D01*
X86300000Y-27135803D01*
X86300000Y-27950000D01*
X87800000Y-27950000D01*
X87800000Y-28450000D01*
X86300001Y-28450000D01*
X86300001Y-29264197D01*
X86310400Y-29396332D01*
X86365377Y-29614519D01*
X86458428Y-29819374D01*
X86458431Y-29819380D01*
X86586559Y-30004323D01*
X86586569Y-30004335D01*
X86745664Y-30163430D01*
X86745676Y-30163440D01*
X86930619Y-30291568D01*
X86930625Y-30291571D01*
X87135480Y-30384622D01*
X87353667Y-30439599D01*
X87485810Y-30449999D01*
X88049999Y-30449999D01*
X88050000Y-30449998D01*
X88050000Y-29633012D01*
X88107007Y-29665925D01*
X88234174Y-29700000D01*
X88365826Y-29700000D01*
X88492993Y-29665925D01*
X88550000Y-29633012D01*
X88550000Y-30449999D01*
X89114182Y-30449999D01*
X89114197Y-30449998D01*
X89246332Y-30439599D01*
X89464519Y-30384622D01*
X89669374Y-30291571D01*
X89669380Y-30291568D01*
X89854323Y-30163440D01*
X89854335Y-30163430D01*
X90013430Y-30004335D01*
X90013440Y-30004323D01*
X90141568Y-29819380D01*
X90141571Y-29819374D01*
X90234622Y-29614519D01*
X90289599Y-29396332D01*
X90299999Y-29264196D01*
X90300000Y-29264184D01*
X90300000Y-28450000D01*
X88800000Y-28450000D01*
X88800000Y-27950000D01*
X90299999Y-27950000D01*
X90299999Y-27135817D01*
X90299998Y-27135802D01*
X90289599Y-27003667D01*
X90234622Y-26785480D01*
X90141571Y-26580625D01*
X90141568Y-26580619D01*
X90013440Y-26395676D01*
X90013430Y-26395664D01*
X89854335Y-26236569D01*
X89854323Y-26236559D01*
X89669380Y-26108431D01*
X89669374Y-26108428D01*
X89464519Y-26015377D01*
X89246332Y-25960400D01*
X89114196Y-25950000D01*
X88550000Y-25950000D01*
X88550000Y-26766988D01*
X88492993Y-26734075D01*
X88365826Y-26700000D01*
X88234174Y-26700000D01*
X88107007Y-26734075D01*
X88050000Y-26766988D01*
X88050000Y-25950000D01*
X87485817Y-25950000D01*
X87485802Y-25950001D01*
X87353667Y-25960400D01*
X87135480Y-26015377D01*
X86930625Y-26108428D01*
X86930619Y-26108431D01*
X86745676Y-26236559D01*
X86745664Y-26236569D01*
X86586569Y-26395664D01*
X86586559Y-26395676D01*
X86458431Y-26580619D01*
X86458428Y-26580625D01*
X86365377Y-26785480D01*
X86310400Y-27003667D01*
X86300000Y-27135803D01*
X79600500Y-27135803D01*
X79600500Y-21424500D01*
X79620185Y-21357461D01*
X79672989Y-21311706D01*
X79724500Y-21300500D01*
X144375500Y-21300500D01*
X144442539Y-21320185D01*
G37*
%TD.AperFunction*%
%TD*%
M02*
