%TF.GenerationSoftware,KiCad,Pcbnew,9.0.7*%
%TF.CreationDate,2026-04-21T18:17:13+03:00*%
%TF.ProjectId,Cat-Gate Controller v1.0,4361742d-4761-4746-9520-436f6e74726f,rev?*%
%TF.SameCoordinates,Original*%
%TF.FileFunction,Legend,Top*%
%TF.FilePolarity,Positive*%
%FSLAX46Y46*%
G04 Gerber Fmt 4.6, Leading zero omitted, Abs format (unit mm)*
G04 Created by KiCad (PCBNEW 9.0.7) date 2026-04-21 18:17:13*
%MOMM*%
%LPD*%
G01*
G04 APERTURE LIST*
%ADD10C,0.150000*%
%ADD11C,0.120000*%
G04 APERTURE END LIST*
D10*
X104638095Y-45454819D02*
X104638095Y-46264342D01*
X104638095Y-46264342D02*
X104685714Y-46359580D01*
X104685714Y-46359580D02*
X104733333Y-46407200D01*
X104733333Y-46407200D02*
X104828571Y-46454819D01*
X104828571Y-46454819D02*
X105019047Y-46454819D01*
X105019047Y-46454819D02*
X105114285Y-46407200D01*
X105114285Y-46407200D02*
X105161904Y-46359580D01*
X105161904Y-46359580D02*
X105209523Y-46264342D01*
X105209523Y-46264342D02*
X105209523Y-45454819D01*
X105638095Y-45550057D02*
X105685714Y-45502438D01*
X105685714Y-45502438D02*
X105780952Y-45454819D01*
X105780952Y-45454819D02*
X106019047Y-45454819D01*
X106019047Y-45454819D02*
X106114285Y-45502438D01*
X106114285Y-45502438D02*
X106161904Y-45550057D01*
X106161904Y-45550057D02*
X106209523Y-45645295D01*
X106209523Y-45645295D02*
X106209523Y-45740533D01*
X106209523Y-45740533D02*
X106161904Y-45883390D01*
X106161904Y-45883390D02*
X105590476Y-46454819D01*
X105590476Y-46454819D02*
X106209523Y-46454819D01*
X99133333Y-42559580D02*
X99085714Y-42607200D01*
X99085714Y-42607200D02*
X98942857Y-42654819D01*
X98942857Y-42654819D02*
X98847619Y-42654819D01*
X98847619Y-42654819D02*
X98704762Y-42607200D01*
X98704762Y-42607200D02*
X98609524Y-42511961D01*
X98609524Y-42511961D02*
X98561905Y-42416723D01*
X98561905Y-42416723D02*
X98514286Y-42226247D01*
X98514286Y-42226247D02*
X98514286Y-42083390D01*
X98514286Y-42083390D02*
X98561905Y-41892914D01*
X98561905Y-41892914D02*
X98609524Y-41797676D01*
X98609524Y-41797676D02*
X98704762Y-41702438D01*
X98704762Y-41702438D02*
X98847619Y-41654819D01*
X98847619Y-41654819D02*
X98942857Y-41654819D01*
X98942857Y-41654819D02*
X99085714Y-41702438D01*
X99085714Y-41702438D02*
X99133333Y-41750057D01*
X99990476Y-41988152D02*
X99990476Y-42654819D01*
X99752381Y-41607200D02*
X99514286Y-42321485D01*
X99514286Y-42321485D02*
X100133333Y-42321485D01*
X142366666Y-45934819D02*
X142366666Y-46649104D01*
X142366666Y-46649104D02*
X142319047Y-46791961D01*
X142319047Y-46791961D02*
X142223809Y-46887200D01*
X142223809Y-46887200D02*
X142080952Y-46934819D01*
X142080952Y-46934819D02*
X141985714Y-46934819D01*
X143319047Y-45934819D02*
X142842857Y-45934819D01*
X142842857Y-45934819D02*
X142795238Y-46411009D01*
X142795238Y-46411009D02*
X142842857Y-46363390D01*
X142842857Y-46363390D02*
X142938095Y-46315771D01*
X142938095Y-46315771D02*
X143176190Y-46315771D01*
X143176190Y-46315771D02*
X143271428Y-46363390D01*
X143271428Y-46363390D02*
X143319047Y-46411009D01*
X143319047Y-46411009D02*
X143366666Y-46506247D01*
X143366666Y-46506247D02*
X143366666Y-46744342D01*
X143366666Y-46744342D02*
X143319047Y-46839580D01*
X143319047Y-46839580D02*
X143271428Y-46887200D01*
X143271428Y-46887200D02*
X143176190Y-46934819D01*
X143176190Y-46934819D02*
X142938095Y-46934819D01*
X142938095Y-46934819D02*
X142842857Y-46887200D01*
X142842857Y-46887200D02*
X142795238Y-46839580D01*
X134738095Y-30154819D02*
X134738095Y-30964342D01*
X134738095Y-30964342D02*
X134785714Y-31059580D01*
X134785714Y-31059580D02*
X134833333Y-31107200D01*
X134833333Y-31107200D02*
X134928571Y-31154819D01*
X134928571Y-31154819D02*
X135119047Y-31154819D01*
X135119047Y-31154819D02*
X135214285Y-31107200D01*
X135214285Y-31107200D02*
X135261904Y-31059580D01*
X135261904Y-31059580D02*
X135309523Y-30964342D01*
X135309523Y-30964342D02*
X135309523Y-30154819D01*
X136309523Y-31154819D02*
X135738095Y-31154819D01*
X136023809Y-31154819D02*
X136023809Y-30154819D01*
X136023809Y-30154819D02*
X135928571Y-30297676D01*
X135928571Y-30297676D02*
X135833333Y-30392914D01*
X135833333Y-30392914D02*
X135738095Y-30440533D01*
X122233333Y-42159580D02*
X122185714Y-42207200D01*
X122185714Y-42207200D02*
X122042857Y-42254819D01*
X122042857Y-42254819D02*
X121947619Y-42254819D01*
X121947619Y-42254819D02*
X121804762Y-42207200D01*
X121804762Y-42207200D02*
X121709524Y-42111961D01*
X121709524Y-42111961D02*
X121661905Y-42016723D01*
X121661905Y-42016723D02*
X121614286Y-41826247D01*
X121614286Y-41826247D02*
X121614286Y-41683390D01*
X121614286Y-41683390D02*
X121661905Y-41492914D01*
X121661905Y-41492914D02*
X121709524Y-41397676D01*
X121709524Y-41397676D02*
X121804762Y-41302438D01*
X121804762Y-41302438D02*
X121947619Y-41254819D01*
X121947619Y-41254819D02*
X122042857Y-41254819D01*
X122042857Y-41254819D02*
X122185714Y-41302438D01*
X122185714Y-41302438D02*
X122233333Y-41350057D01*
X122566667Y-41254819D02*
X123185714Y-41254819D01*
X123185714Y-41254819D02*
X122852381Y-41635771D01*
X122852381Y-41635771D02*
X122995238Y-41635771D01*
X122995238Y-41635771D02*
X123090476Y-41683390D01*
X123090476Y-41683390D02*
X123138095Y-41731009D01*
X123138095Y-41731009D02*
X123185714Y-41826247D01*
X123185714Y-41826247D02*
X123185714Y-42064342D01*
X123185714Y-42064342D02*
X123138095Y-42159580D01*
X123138095Y-42159580D02*
X123090476Y-42207200D01*
X123090476Y-42207200D02*
X122995238Y-42254819D01*
X122995238Y-42254819D02*
X122709524Y-42254819D01*
X122709524Y-42254819D02*
X122614286Y-42207200D01*
X122614286Y-42207200D02*
X122566667Y-42159580D01*
X106588095Y-32954819D02*
X106588095Y-33764342D01*
X106588095Y-33764342D02*
X106635714Y-33859580D01*
X106635714Y-33859580D02*
X106683333Y-33907200D01*
X106683333Y-33907200D02*
X106778571Y-33954819D01*
X106778571Y-33954819D02*
X106969047Y-33954819D01*
X106969047Y-33954819D02*
X107064285Y-33907200D01*
X107064285Y-33907200D02*
X107111904Y-33859580D01*
X107111904Y-33859580D02*
X107159523Y-33764342D01*
X107159523Y-33764342D02*
X107159523Y-32954819D01*
X107540476Y-32954819D02*
X108159523Y-32954819D01*
X108159523Y-32954819D02*
X107826190Y-33335771D01*
X107826190Y-33335771D02*
X107969047Y-33335771D01*
X107969047Y-33335771D02*
X108064285Y-33383390D01*
X108064285Y-33383390D02*
X108111904Y-33431009D01*
X108111904Y-33431009D02*
X108159523Y-33526247D01*
X108159523Y-33526247D02*
X108159523Y-33764342D01*
X108159523Y-33764342D02*
X108111904Y-33859580D01*
X108111904Y-33859580D02*
X108064285Y-33907200D01*
X108064285Y-33907200D02*
X107969047Y-33954819D01*
X107969047Y-33954819D02*
X107683333Y-33954819D01*
X107683333Y-33954819D02*
X107588095Y-33907200D01*
X107588095Y-33907200D02*
X107540476Y-33859580D01*
X132933333Y-26139819D02*
X132600000Y-25663628D01*
X132361905Y-26139819D02*
X132361905Y-25139819D01*
X132361905Y-25139819D02*
X132742857Y-25139819D01*
X132742857Y-25139819D02*
X132838095Y-25187438D01*
X132838095Y-25187438D02*
X132885714Y-25235057D01*
X132885714Y-25235057D02*
X132933333Y-25330295D01*
X132933333Y-25330295D02*
X132933333Y-25473152D01*
X132933333Y-25473152D02*
X132885714Y-25568390D01*
X132885714Y-25568390D02*
X132838095Y-25616009D01*
X132838095Y-25616009D02*
X132742857Y-25663628D01*
X132742857Y-25663628D02*
X132361905Y-25663628D01*
X133885714Y-26139819D02*
X133314286Y-26139819D01*
X133600000Y-26139819D02*
X133600000Y-25139819D01*
X133600000Y-25139819D02*
X133504762Y-25282676D01*
X133504762Y-25282676D02*
X133409524Y-25377914D01*
X133409524Y-25377914D02*
X133314286Y-25425533D01*
X121833333Y-32059580D02*
X121785714Y-32107200D01*
X121785714Y-32107200D02*
X121642857Y-32154819D01*
X121642857Y-32154819D02*
X121547619Y-32154819D01*
X121547619Y-32154819D02*
X121404762Y-32107200D01*
X121404762Y-32107200D02*
X121309524Y-32011961D01*
X121309524Y-32011961D02*
X121261905Y-31916723D01*
X121261905Y-31916723D02*
X121214286Y-31726247D01*
X121214286Y-31726247D02*
X121214286Y-31583390D01*
X121214286Y-31583390D02*
X121261905Y-31392914D01*
X121261905Y-31392914D02*
X121309524Y-31297676D01*
X121309524Y-31297676D02*
X121404762Y-31202438D01*
X121404762Y-31202438D02*
X121547619Y-31154819D01*
X121547619Y-31154819D02*
X121642857Y-31154819D01*
X121642857Y-31154819D02*
X121785714Y-31202438D01*
X121785714Y-31202438D02*
X121833333Y-31250057D01*
X122214286Y-31250057D02*
X122261905Y-31202438D01*
X122261905Y-31202438D02*
X122357143Y-31154819D01*
X122357143Y-31154819D02*
X122595238Y-31154819D01*
X122595238Y-31154819D02*
X122690476Y-31202438D01*
X122690476Y-31202438D02*
X122738095Y-31250057D01*
X122738095Y-31250057D02*
X122785714Y-31345295D01*
X122785714Y-31345295D02*
X122785714Y-31440533D01*
X122785714Y-31440533D02*
X122738095Y-31583390D01*
X122738095Y-31583390D02*
X122166667Y-32154819D01*
X122166667Y-32154819D02*
X122785714Y-32154819D01*
X136466666Y-45834819D02*
X136466666Y-46549104D01*
X136466666Y-46549104D02*
X136419047Y-46691961D01*
X136419047Y-46691961D02*
X136323809Y-46787200D01*
X136323809Y-46787200D02*
X136180952Y-46834819D01*
X136180952Y-46834819D02*
X136085714Y-46834819D01*
X137371428Y-46168152D02*
X137371428Y-46834819D01*
X137133333Y-45787200D02*
X136895238Y-46501485D01*
X136895238Y-46501485D02*
X137514285Y-46501485D01*
X85516666Y-33404819D02*
X85516666Y-34119104D01*
X85516666Y-34119104D02*
X85469047Y-34261961D01*
X85469047Y-34261961D02*
X85373809Y-34357200D01*
X85373809Y-34357200D02*
X85230952Y-34404819D01*
X85230952Y-34404819D02*
X85135714Y-34404819D01*
X85945238Y-33500057D02*
X85992857Y-33452438D01*
X85992857Y-33452438D02*
X86088095Y-33404819D01*
X86088095Y-33404819D02*
X86326190Y-33404819D01*
X86326190Y-33404819D02*
X86421428Y-33452438D01*
X86421428Y-33452438D02*
X86469047Y-33500057D01*
X86469047Y-33500057D02*
X86516666Y-33595295D01*
X86516666Y-33595295D02*
X86516666Y-33690533D01*
X86516666Y-33690533D02*
X86469047Y-33833390D01*
X86469047Y-33833390D02*
X85897619Y-34404819D01*
X85897619Y-34404819D02*
X86516666Y-34404819D01*
X121078628Y-37176190D02*
X121554819Y-37176190D01*
X120554819Y-37509523D02*
X121078628Y-37176190D01*
X121078628Y-37176190D02*
X120554819Y-36842857D01*
X121554819Y-35985714D02*
X121554819Y-36557142D01*
X121554819Y-36271428D02*
X120554819Y-36271428D01*
X120554819Y-36271428D02*
X120697676Y-36366666D01*
X120697676Y-36366666D02*
X120792914Y-36461904D01*
X120792914Y-36461904D02*
X120840533Y-36557142D01*
X115233333Y-49459580D02*
X115185714Y-49507200D01*
X115185714Y-49507200D02*
X115042857Y-49554819D01*
X115042857Y-49554819D02*
X114947619Y-49554819D01*
X114947619Y-49554819D02*
X114804762Y-49507200D01*
X114804762Y-49507200D02*
X114709524Y-49411961D01*
X114709524Y-49411961D02*
X114661905Y-49316723D01*
X114661905Y-49316723D02*
X114614286Y-49126247D01*
X114614286Y-49126247D02*
X114614286Y-48983390D01*
X114614286Y-48983390D02*
X114661905Y-48792914D01*
X114661905Y-48792914D02*
X114709524Y-48697676D01*
X114709524Y-48697676D02*
X114804762Y-48602438D01*
X114804762Y-48602438D02*
X114947619Y-48554819D01*
X114947619Y-48554819D02*
X115042857Y-48554819D01*
X115042857Y-48554819D02*
X115185714Y-48602438D01*
X115185714Y-48602438D02*
X115233333Y-48650057D01*
X116090476Y-48554819D02*
X115900000Y-48554819D01*
X115900000Y-48554819D02*
X115804762Y-48602438D01*
X115804762Y-48602438D02*
X115757143Y-48650057D01*
X115757143Y-48650057D02*
X115661905Y-48792914D01*
X115661905Y-48792914D02*
X115614286Y-48983390D01*
X115614286Y-48983390D02*
X115614286Y-49364342D01*
X115614286Y-49364342D02*
X115661905Y-49459580D01*
X115661905Y-49459580D02*
X115709524Y-49507200D01*
X115709524Y-49507200D02*
X115804762Y-49554819D01*
X115804762Y-49554819D02*
X115995238Y-49554819D01*
X115995238Y-49554819D02*
X116090476Y-49507200D01*
X116090476Y-49507200D02*
X116138095Y-49459580D01*
X116138095Y-49459580D02*
X116185714Y-49364342D01*
X116185714Y-49364342D02*
X116185714Y-49126247D01*
X116185714Y-49126247D02*
X116138095Y-49031009D01*
X116138095Y-49031009D02*
X116090476Y-48983390D01*
X116090476Y-48983390D02*
X115995238Y-48935771D01*
X115995238Y-48935771D02*
X115804762Y-48935771D01*
X115804762Y-48935771D02*
X115709524Y-48983390D01*
X115709524Y-48983390D02*
X115661905Y-49031009D01*
X115661905Y-49031009D02*
X115614286Y-49126247D01*
X142033333Y-32494580D02*
X141985714Y-32542200D01*
X141985714Y-32542200D02*
X141842857Y-32589819D01*
X141842857Y-32589819D02*
X141747619Y-32589819D01*
X141747619Y-32589819D02*
X141604762Y-32542200D01*
X141604762Y-32542200D02*
X141509524Y-32446961D01*
X141509524Y-32446961D02*
X141461905Y-32351723D01*
X141461905Y-32351723D02*
X141414286Y-32161247D01*
X141414286Y-32161247D02*
X141414286Y-32018390D01*
X141414286Y-32018390D02*
X141461905Y-31827914D01*
X141461905Y-31827914D02*
X141509524Y-31732676D01*
X141509524Y-31732676D02*
X141604762Y-31637438D01*
X141604762Y-31637438D02*
X141747619Y-31589819D01*
X141747619Y-31589819D02*
X141842857Y-31589819D01*
X141842857Y-31589819D02*
X141985714Y-31637438D01*
X141985714Y-31637438D02*
X142033333Y-31685057D01*
X142604762Y-32018390D02*
X142509524Y-31970771D01*
X142509524Y-31970771D02*
X142461905Y-31923152D01*
X142461905Y-31923152D02*
X142414286Y-31827914D01*
X142414286Y-31827914D02*
X142414286Y-31780295D01*
X142414286Y-31780295D02*
X142461905Y-31685057D01*
X142461905Y-31685057D02*
X142509524Y-31637438D01*
X142509524Y-31637438D02*
X142604762Y-31589819D01*
X142604762Y-31589819D02*
X142795238Y-31589819D01*
X142795238Y-31589819D02*
X142890476Y-31637438D01*
X142890476Y-31637438D02*
X142938095Y-31685057D01*
X142938095Y-31685057D02*
X142985714Y-31780295D01*
X142985714Y-31780295D02*
X142985714Y-31827914D01*
X142985714Y-31827914D02*
X142938095Y-31923152D01*
X142938095Y-31923152D02*
X142890476Y-31970771D01*
X142890476Y-31970771D02*
X142795238Y-32018390D01*
X142795238Y-32018390D02*
X142604762Y-32018390D01*
X142604762Y-32018390D02*
X142509524Y-32066009D01*
X142509524Y-32066009D02*
X142461905Y-32113628D01*
X142461905Y-32113628D02*
X142414286Y-32208866D01*
X142414286Y-32208866D02*
X142414286Y-32399342D01*
X142414286Y-32399342D02*
X142461905Y-32494580D01*
X142461905Y-32494580D02*
X142509524Y-32542200D01*
X142509524Y-32542200D02*
X142604762Y-32589819D01*
X142604762Y-32589819D02*
X142795238Y-32589819D01*
X142795238Y-32589819D02*
X142890476Y-32542200D01*
X142890476Y-32542200D02*
X142938095Y-32494580D01*
X142938095Y-32494580D02*
X142985714Y-32399342D01*
X142985714Y-32399342D02*
X142985714Y-32208866D01*
X142985714Y-32208866D02*
X142938095Y-32113628D01*
X142938095Y-32113628D02*
X142890476Y-32066009D01*
X142890476Y-32066009D02*
X142795238Y-32018390D01*
X106433333Y-24059580D02*
X106385714Y-24107200D01*
X106385714Y-24107200D02*
X106242857Y-24154819D01*
X106242857Y-24154819D02*
X106147619Y-24154819D01*
X106147619Y-24154819D02*
X106004762Y-24107200D01*
X106004762Y-24107200D02*
X105909524Y-24011961D01*
X105909524Y-24011961D02*
X105861905Y-23916723D01*
X105861905Y-23916723D02*
X105814286Y-23726247D01*
X105814286Y-23726247D02*
X105814286Y-23583390D01*
X105814286Y-23583390D02*
X105861905Y-23392914D01*
X105861905Y-23392914D02*
X105909524Y-23297676D01*
X105909524Y-23297676D02*
X106004762Y-23202438D01*
X106004762Y-23202438D02*
X106147619Y-23154819D01*
X106147619Y-23154819D02*
X106242857Y-23154819D01*
X106242857Y-23154819D02*
X106385714Y-23202438D01*
X106385714Y-23202438D02*
X106433333Y-23250057D01*
X107385714Y-24154819D02*
X106814286Y-24154819D01*
X107100000Y-24154819D02*
X107100000Y-23154819D01*
X107100000Y-23154819D02*
X107004762Y-23297676D01*
X107004762Y-23297676D02*
X106909524Y-23392914D01*
X106909524Y-23392914D02*
X106814286Y-23440533D01*
X94966666Y-45999819D02*
X94966666Y-46714104D01*
X94966666Y-46714104D02*
X94919047Y-46856961D01*
X94919047Y-46856961D02*
X94823809Y-46952200D01*
X94823809Y-46952200D02*
X94680952Y-46999819D01*
X94680952Y-46999819D02*
X94585714Y-46999819D01*
X95347619Y-45999819D02*
X95966666Y-45999819D01*
X95966666Y-45999819D02*
X95633333Y-46380771D01*
X95633333Y-46380771D02*
X95776190Y-46380771D01*
X95776190Y-46380771D02*
X95871428Y-46428390D01*
X95871428Y-46428390D02*
X95919047Y-46476009D01*
X95919047Y-46476009D02*
X95966666Y-46571247D01*
X95966666Y-46571247D02*
X95966666Y-46809342D01*
X95966666Y-46809342D02*
X95919047Y-46904580D01*
X95919047Y-46904580D02*
X95871428Y-46952200D01*
X95871428Y-46952200D02*
X95776190Y-46999819D01*
X95776190Y-46999819D02*
X95490476Y-46999819D01*
X95490476Y-46999819D02*
X95395238Y-46952200D01*
X95395238Y-46952200D02*
X95347619Y-46904580D01*
X115333333Y-53059580D02*
X115285714Y-53107200D01*
X115285714Y-53107200D02*
X115142857Y-53154819D01*
X115142857Y-53154819D02*
X115047619Y-53154819D01*
X115047619Y-53154819D02*
X114904762Y-53107200D01*
X114904762Y-53107200D02*
X114809524Y-53011961D01*
X114809524Y-53011961D02*
X114761905Y-52916723D01*
X114761905Y-52916723D02*
X114714286Y-52726247D01*
X114714286Y-52726247D02*
X114714286Y-52583390D01*
X114714286Y-52583390D02*
X114761905Y-52392914D01*
X114761905Y-52392914D02*
X114809524Y-52297676D01*
X114809524Y-52297676D02*
X114904762Y-52202438D01*
X114904762Y-52202438D02*
X115047619Y-52154819D01*
X115047619Y-52154819D02*
X115142857Y-52154819D01*
X115142857Y-52154819D02*
X115285714Y-52202438D01*
X115285714Y-52202438D02*
X115333333Y-52250057D01*
X116238095Y-52154819D02*
X115761905Y-52154819D01*
X115761905Y-52154819D02*
X115714286Y-52631009D01*
X115714286Y-52631009D02*
X115761905Y-52583390D01*
X115761905Y-52583390D02*
X115857143Y-52535771D01*
X115857143Y-52535771D02*
X116095238Y-52535771D01*
X116095238Y-52535771D02*
X116190476Y-52583390D01*
X116190476Y-52583390D02*
X116238095Y-52631009D01*
X116238095Y-52631009D02*
X116285714Y-52726247D01*
X116285714Y-52726247D02*
X116285714Y-52964342D01*
X116285714Y-52964342D02*
X116238095Y-53059580D01*
X116238095Y-53059580D02*
X116190476Y-53107200D01*
X116190476Y-53107200D02*
X116095238Y-53154819D01*
X116095238Y-53154819D02*
X115857143Y-53154819D01*
X115857143Y-53154819D02*
X115761905Y-53107200D01*
X115761905Y-53107200D02*
X115714286Y-53059580D01*
X142033333Y-37494580D02*
X141985714Y-37542200D01*
X141985714Y-37542200D02*
X141842857Y-37589819D01*
X141842857Y-37589819D02*
X141747619Y-37589819D01*
X141747619Y-37589819D02*
X141604762Y-37542200D01*
X141604762Y-37542200D02*
X141509524Y-37446961D01*
X141509524Y-37446961D02*
X141461905Y-37351723D01*
X141461905Y-37351723D02*
X141414286Y-37161247D01*
X141414286Y-37161247D02*
X141414286Y-37018390D01*
X141414286Y-37018390D02*
X141461905Y-36827914D01*
X141461905Y-36827914D02*
X141509524Y-36732676D01*
X141509524Y-36732676D02*
X141604762Y-36637438D01*
X141604762Y-36637438D02*
X141747619Y-36589819D01*
X141747619Y-36589819D02*
X141842857Y-36589819D01*
X141842857Y-36589819D02*
X141985714Y-36637438D01*
X141985714Y-36637438D02*
X142033333Y-36685057D01*
X142366667Y-36589819D02*
X143033333Y-36589819D01*
X143033333Y-36589819D02*
X142604762Y-37589819D01*
X124766666Y-45754819D02*
X124766666Y-46469104D01*
X124766666Y-46469104D02*
X124719047Y-46611961D01*
X124719047Y-46611961D02*
X124623809Y-46707200D01*
X124623809Y-46707200D02*
X124480952Y-46754819D01*
X124480952Y-46754819D02*
X124385714Y-46754819D01*
X125766666Y-46754819D02*
X125195238Y-46754819D01*
X125480952Y-46754819D02*
X125480952Y-45754819D01*
X125480952Y-45754819D02*
X125385714Y-45897676D01*
X125385714Y-45897676D02*
X125290476Y-45992914D01*
X125290476Y-45992914D02*
X125195238Y-46040533D01*
D11*
%TO.C,U2*%
X101927500Y-46690000D02*
X106547500Y-46690000D01*
X106547500Y-52160000D02*
X101927500Y-52160000D01*
X100377500Y-47145000D02*
X100047500Y-47385000D01*
X100047500Y-46905000D01*
X100377500Y-47145000D01*
G36*
X100377500Y-47145000D02*
G01*
X100047500Y-47385000D01*
X100047500Y-46905000D01*
X100377500Y-47145000D01*
G37*
%TO.C,C4*%
X100111252Y-39565000D02*
X99588748Y-39565000D01*
X100111252Y-41035000D02*
X99588748Y-41035000D01*
%TO.C,J5*%
X141320000Y-47480000D02*
X142700000Y-47480000D01*
X141320000Y-48860000D02*
X141320000Y-47480000D01*
X141320000Y-50130000D02*
X141320000Y-52780000D01*
X141320000Y-50130000D02*
X144080000Y-50130000D01*
X141320000Y-52780000D02*
X144080000Y-52780000D01*
X144080000Y-50130000D02*
X144080000Y-52780000D01*
%TO.C,U1*%
X130890000Y-33225000D02*
X131165000Y-33225000D01*
X130890000Y-33500000D02*
X130890000Y-33225000D01*
X130890000Y-40445000D02*
X130890000Y-40170000D01*
X131165000Y-40445000D02*
X130890000Y-40445000D01*
X137835000Y-33225000D02*
X138110000Y-33225000D01*
X138110000Y-33225000D02*
X138110000Y-33500000D01*
X138110000Y-40170000D02*
X138110000Y-40445000D01*
X138110000Y-40445000D02*
X137835000Y-40445000D01*
X130250000Y-33495000D02*
X129910000Y-33025000D01*
X130590000Y-33025000D01*
X130250000Y-33495000D01*
G36*
X130250000Y-33495000D02*
G01*
X129910000Y-33025000D01*
X130590000Y-33025000D01*
X130250000Y-33495000D01*
G37*
%TO.C,C3*%
X124888748Y-41065000D02*
X125411252Y-41065000D01*
X124888748Y-42535000D02*
X125411252Y-42535000D01*
%TO.C,U3*%
X105500000Y-34590000D02*
X109260000Y-34590000D01*
X105500000Y-41410000D02*
X109260000Y-41410000D01*
X109260000Y-34590000D02*
X109260000Y-35850000D01*
X109260000Y-41410000D02*
X109260000Y-40150000D01*
X104220000Y-34690000D02*
X103980000Y-34360000D01*
X104460000Y-34360000D01*
X104220000Y-34690000D01*
G36*
X104220000Y-34690000D02*
G01*
X103980000Y-34360000D01*
X104460000Y-34360000D01*
X104220000Y-34690000D01*
G37*
%TO.C,R1*%
X132872936Y-26600000D02*
X133327064Y-26600000D01*
X132872936Y-28070000D02*
X133327064Y-28070000D01*
%TO.C,C2*%
X124788748Y-31065000D02*
X125311252Y-31065000D01*
X124788748Y-32535000D02*
X125311252Y-32535000D01*
%TO.C,J4*%
X135420000Y-47380000D02*
X136800000Y-47380000D01*
X135420000Y-48760000D02*
X135420000Y-47380000D01*
X135420000Y-50030000D02*
X135420000Y-52680000D01*
X135420000Y-50030000D02*
X138180000Y-50030000D01*
X135420000Y-52680000D02*
X138180000Y-52680000D01*
X138180000Y-50030000D02*
X138180000Y-52680000D01*
%TO.C,J2*%
X80500000Y-23600000D02*
X95200000Y-23600000D01*
X80500000Y-32800000D02*
X80500000Y-23600000D01*
X89300000Y-32800000D02*
X80500000Y-32800000D01*
X94350000Y-23400000D02*
X95400000Y-23400000D01*
X95200000Y-23600000D02*
X95200000Y-26200000D01*
X95200000Y-30100000D02*
X95200000Y-32800000D01*
X95200000Y-32800000D02*
X93300000Y-32800000D01*
X95400000Y-24450000D02*
X95400000Y-23400000D01*
%TO.C,Y1*%
X123340000Y-33690000D02*
X123340000Y-39560000D01*
X127060000Y-33690000D02*
X123340000Y-33690000D01*
X127060000Y-39560000D02*
X127060000Y-33690000D01*
%TO.C,C6*%
X113988748Y-46565000D02*
X114511252Y-46565000D01*
X113988748Y-48035000D02*
X114511252Y-48035000D01*
%TO.C,C8*%
X141888748Y-33100000D02*
X142411252Y-33100000D01*
X141888748Y-34570000D02*
X142411252Y-34570000D01*
%TO.C,C1*%
X102775000Y-26615000D02*
X103400000Y-26615000D01*
X103087500Y-26302500D02*
X103087500Y-26927500D01*
X103640000Y-26604437D02*
X103640000Y-27240000D01*
X103640000Y-26604437D02*
X104704437Y-25540000D01*
X103640000Y-29995563D02*
X103640000Y-29360000D01*
X103640000Y-29995563D02*
X104704437Y-31060000D01*
X104704437Y-25540000D02*
X109160000Y-25540000D01*
X104704437Y-31060000D02*
X109160000Y-31060000D01*
X109160000Y-25540000D02*
X109160000Y-27240000D01*
X109160000Y-31060000D02*
X109160000Y-29360000D01*
%TO.C,J3*%
X93920000Y-47545000D02*
X95300000Y-47545000D01*
X93920000Y-48925000D02*
X93920000Y-47545000D01*
X93920000Y-50195000D02*
X93920000Y-52845000D01*
X93920000Y-50195000D02*
X96680000Y-50195000D01*
X93920000Y-52845000D02*
X96680000Y-52845000D01*
X96680000Y-50195000D02*
X96680000Y-52845000D01*
%TO.C,C5*%
X113988748Y-50165000D02*
X114511252Y-50165000D01*
X113988748Y-51635000D02*
X114511252Y-51635000D01*
%TO.C,C7*%
X141988748Y-38100000D02*
X142511252Y-38100000D01*
X141988748Y-39570000D02*
X142511252Y-39570000D01*
%TO.C,J1*%
X123720000Y-47420000D02*
X125100000Y-47420000D01*
X123720000Y-48800000D02*
X123720000Y-47420000D01*
X123720000Y-50070000D02*
X123720000Y-52720000D01*
X123720000Y-50070000D02*
X126480000Y-50070000D01*
X123720000Y-52720000D02*
X126480000Y-52720000D01*
X126480000Y-50070000D02*
X126480000Y-52720000D01*
%TD*%
M02*
