%TF.GenerationSoftware,KiCad,Pcbnew,9.0.7*%
%TF.CreationDate,2026-04-21T18:17:13+03:00*%
%TF.ProjectId,Cat-Gate Controller v1.0,4361742d-4761-4746-9520-436f6e74726f,rev?*%
%TF.SameCoordinates,Original*%
%TF.FileFunction,Soldermask,Top*%
%TF.FilePolarity,Negative*%
%FSLAX46Y46*%
G04 Gerber Fmt 4.6, Leading zero omitted, Abs format (unit mm)*
G04 Created by KiCad (PCBNEW 9.0.7) date 2026-04-21 18:17:13*
%MOMM*%
%LPD*%
G01*
G04 APERTURE LIST*
G04 Aperture macros list*
%AMRoundRect*
0 Rectangle with rounded corners*
0 $1 Rounding radius*
0 $2 $3 $4 $5 $6 $7 $8 $9 X,Y pos of 4 corners*
0 Add a 4 corners polygon primitive as box body*
4,1,4,$2,$3,$4,$5,$6,$7,$8,$9,$2,$3,0*
0 Add four circle primitives for the rounded corners*
1,1,$1+$1,$2,$3*
1,1,$1+$1,$4,$5*
1,1,$1+$1,$6,$7*
1,1,$1+$1,$8,$9*
0 Add four rect primitives between the rounded corners*
20,1,$1+$1,$2,$3,$4,$5,0*
20,1,$1+$1,$4,$5,$6,$7,0*
20,1,$1+$1,$6,$7,$8,$9,0*
20,1,$1+$1,$8,$9,$2,$3,0*%
G04 Aperture macros list end*
%ADD10RoundRect,0.100000X-0.637500X-0.100000X0.637500X-0.100000X0.637500X0.100000X-0.637500X0.100000X0*%
%ADD11RoundRect,0.250000X0.250000X0.475000X-0.250000X0.475000X-0.250000X-0.475000X0.250000X-0.475000X0*%
%ADD12R,1.700000X1.700000*%
%ADD13C,1.700000*%
%ADD14RoundRect,0.137500X-0.600000X-0.137500X0.600000X-0.137500X0.600000X0.137500X-0.600000X0.137500X0*%
%ADD15RoundRect,0.137500X-0.137500X-0.600000X0.137500X-0.600000X0.137500X0.600000X-0.137500X0.600000X0*%
%ADD16RoundRect,0.250000X-0.250000X-0.475000X0.250000X-0.475000X0.250000X0.475000X-0.250000X0.475000X0*%
%ADD17RoundRect,0.375000X-0.625000X-0.375000X0.625000X-0.375000X0.625000X0.375000X-0.625000X0.375000X0*%
%ADD18RoundRect,0.500000X-0.500000X-1.400000X0.500000X-1.400000X0.500000X1.400000X-0.500000X1.400000X0*%
%ADD19RoundRect,0.250000X-0.262500X-0.450000X0.262500X-0.450000X0.262500X0.450000X-0.262500X0.450000X0*%
%ADD20R,3.500000X3.500000*%
%ADD21RoundRect,0.750000X-0.750000X-1.000000X0.750000X-1.000000X0.750000X1.000000X-0.750000X1.000000X0*%
%ADD22RoundRect,0.875000X-0.875000X-0.875000X0.875000X-0.875000X0.875000X0.875000X-0.875000X0.875000X0*%
%ADD23RoundRect,0.250000X-0.950000X0.750000X-0.950000X-0.750000X0.950000X-0.750000X0.950000X0.750000X0*%
%ADD24RoundRect,0.250000X-1.250000X-0.550000X1.250000X-0.550000X1.250000X0.550000X-1.250000X0.550000X0*%
G04 APERTURE END LIST*
D10*
%TO.C,U2*%
X101375000Y-47150000D03*
X101375000Y-47800000D03*
X101375000Y-48450000D03*
X101375000Y-49100000D03*
X101375000Y-49750000D03*
X101375000Y-50400000D03*
X101375000Y-51050000D03*
X101375000Y-51700000D03*
X107100000Y-51700000D03*
X107100000Y-51050000D03*
X107100000Y-50400000D03*
X107100000Y-49750000D03*
X107100000Y-49100000D03*
X107100000Y-48450000D03*
X107100000Y-47800000D03*
X107100000Y-47150000D03*
%TD*%
D11*
%TO.C,C4*%
X100800000Y-40300000D03*
X98900000Y-40300000D03*
%TD*%
D12*
%TO.C,J5*%
X142700000Y-48860000D03*
D13*
X142700000Y-51400000D03*
%TD*%
D14*
%TO.C,U1*%
X130337500Y-34035000D03*
X130337500Y-34835000D03*
X130337500Y-35635000D03*
X130337500Y-36435000D03*
X130337500Y-37235000D03*
X130337500Y-38035000D03*
X130337500Y-38835000D03*
X130337500Y-39635000D03*
D15*
X131700000Y-40997500D03*
X132500000Y-40997500D03*
X133300000Y-40997500D03*
X134100000Y-40997500D03*
X134900000Y-40997500D03*
X135700000Y-40997500D03*
X136500000Y-40997500D03*
X137300000Y-40997500D03*
D14*
X138662500Y-39635000D03*
X138662500Y-38835000D03*
X138662500Y-38035000D03*
X138662500Y-37235000D03*
X138662500Y-36435000D03*
X138662500Y-35635000D03*
X138662500Y-34835000D03*
X138662500Y-34035000D03*
D15*
X137300000Y-32672500D03*
X136500000Y-32672500D03*
X135700000Y-32672500D03*
X134900000Y-32672500D03*
X134100000Y-32672500D03*
X133300000Y-32672500D03*
X132500000Y-32672500D03*
X131700000Y-32672500D03*
%TD*%
D16*
%TO.C,C3*%
X124200000Y-41800000D03*
X126100000Y-41800000D03*
%TD*%
D17*
%TO.C,U3*%
X104200000Y-35700000D03*
X104200000Y-38000000D03*
D18*
X110500000Y-38000000D03*
D17*
X104200000Y-40300000D03*
%TD*%
D19*
%TO.C,R1*%
X132187500Y-27335000D03*
X134012500Y-27335000D03*
%TD*%
D16*
%TO.C,C2*%
X124100000Y-31800000D03*
X126000000Y-31800000D03*
%TD*%
D12*
%TO.C,J4*%
X136800000Y-48760000D03*
D13*
X136800000Y-51300000D03*
%TD*%
D20*
%TO.C,J2*%
X94300000Y-28200000D03*
D21*
X88300000Y-28200000D03*
D22*
X91300000Y-32900000D03*
%TD*%
D23*
%TO.C,Y1*%
X125200000Y-34950000D03*
X125200000Y-38650000D03*
%TD*%
D16*
%TO.C,C6*%
X113300000Y-47300000D03*
X115200000Y-47300000D03*
%TD*%
%TO.C,C8*%
X141200000Y-33835000D03*
X143100000Y-33835000D03*
%TD*%
D24*
%TO.C,C1*%
X104200000Y-28300000D03*
X108600000Y-28300000D03*
%TD*%
D12*
%TO.C,J3*%
X95300000Y-48925000D03*
D13*
X95300000Y-51465000D03*
%TD*%
D16*
%TO.C,C5*%
X113300000Y-50900000D03*
X115200000Y-50900000D03*
%TD*%
%TO.C,C7*%
X141300000Y-38835000D03*
X143200000Y-38835000D03*
%TD*%
D12*
%TO.C,J1*%
X125100000Y-48800000D03*
D13*
X125100000Y-51340000D03*
%TD*%
M02*
